<svg width="38" height="38" viewBox="0 0 38 38" fill="none" xmlns="http://www.w3.org/2000/svg">
<g filter="url(#filter0_d)">
<rect x="4" y="2" width="30" height="30" rx="2.5" fill="#037EC4"/>
</g>
<path d="M22.5148 16.9573C22.4611 16.9035 22.3973 16.8608 22.3271 16.8317C22.2569 16.8026 22.1816 16.7876 22.1056 16.7876C22.0296 16.7876 21.9544 16.8026 21.8842 16.8317C21.8139 16.8608 21.7502 16.9035 21.6965 16.9573L20.7739 17.8798C20.3462 17.7525 19.5481 17.4631 19.0423 16.9573C18.5364 16.4514 18.2471 15.6533 18.1197 15.2256L19.0423 14.3031C19.0961 14.2494 19.1387 14.1856 19.1679 14.1154C19.197 14.0452 19.212 13.9699 19.212 13.8939C19.212 13.8179 19.197 13.7426 19.1679 13.6724C19.1387 13.6022 19.0961 13.5384 19.0423 13.4847L16.7272 11.1697C16.6735 11.1159 16.6098 11.0732 16.5395 11.0441C16.4693 11.015 16.3941 11 16.3181 11C16.242 11 16.1668 11.015 16.0966 11.0441C16.0264 11.0732 15.9626 11.1159 15.9089 11.1697L14.3393 12.7393C14.1193 12.9592 13.9955 13.2613 14.0001 13.5698C14.0134 14.394 14.2316 17.2565 16.4876 19.5125C18.7436 21.7685 21.6062 21.9861 22.4309 22H22.4471C22.7527 22 23.0415 21.8796 23.2603 21.6608L24.8299 20.0913C24.8836 20.0376 24.9263 19.9738 24.9554 19.9036C24.9846 19.8333 24.9995 19.7581 24.9995 19.6821C24.9995 19.6061 24.9846 19.5308 24.9554 19.4606C24.9263 19.3904 24.8836 19.3266 24.8299 19.2729L22.5148 16.9573ZM22.4413 20.8419C21.719 20.8297 19.2477 20.6359 17.306 18.6936C15.3579 16.7455 15.1692 14.2655 15.1576 13.5577L16.3181 12.3972L17.8147 13.8939L17.0664 14.6422C16.9984 14.7102 16.9483 14.7941 16.9209 14.8862C16.8934 14.9784 16.8893 15.0759 16.909 15.1701C16.9229 15.2366 17.2626 16.8149 18.2233 17.7756C19.1841 18.7364 20.7623 19.0761 20.8289 19.09C20.923 19.1102 21.0206 19.1065 21.1129 19.0791C21.2051 19.0517 21.289 19.0015 21.3567 18.9332L22.1056 18.1848L23.6023 19.6815L22.4413 20.8419Z" fill="white"/>
<defs>
<filter id="filter0_d" x="0" y="0" width="38" height="38" filterUnits="userSpaceOnUse" color-interpolation-filters="sRGB">
<feFlood flood-opacity="0" result="BackgroundImageFix"/>
<feColorMatrix in="SourceAlpha" type="matrix" values="0 0 0 0 0 0 0 0 0 0 0 0 0 0 0 0 0 0 127 0"/>
<feOffset dy="2"/>
<feGaussianBlur stdDeviation="2"/>
<feColorMatrix type="matrix" values="0 0 0 0 0 0 0 0 0 0 0 0 0 0 0 0 0 0 0.2 0"/>
<feBlend mode="normal" in2="BackgroundImageFix" result="effect1_dropShadow"/>
<feBlend mode="normal" in="SourceGraphic" in2="effect1_dropShadow" result="shape"/>
</filter>
</defs>
</svg>
