<svg width="16" height="15" viewBox="0 0 16 15" fill="none" xmlns="http://www.w3.org/2000/svg">
<path d="M3.50558 4.84933H0.190848V14.8036H3.50558V4.84933ZM3.71652 1.77567C3.70647 0.801339 3.00335 0.0580353 1.8683 0.0580353C0.743304 0.0580353 0 0.801339 0 1.77567C0 2.72991 0.71317 3.4933 1.82813 3.4933H1.84821C3.00335 3.4933 3.72656 2.72991 3.71652 1.77567ZM15.4286 9.09821C15.4286 6.04464 13.8013 4.6183 11.6217 4.6183C9.83371 4.6183 9.05022 5.61272 8.6183 6.29576H8.63839V4.84933H5.33371C5.33371 4.84933 5.37388 5.78348 5.33371 14.8036H8.63839V9.24888C8.63839 8.94754 8.66853 8.65625 8.74888 8.43527C8.98996 7.84263 9.53237 7.22991 10.4464 7.22991C11.6417 7.22991 12.1239 8.14397 12.1239 9.47991V14.8036H15.4286V9.09821Z" fill="black"/>
</svg>
