<svg width="53" height="76" viewBox="0 0 53 76" fill="none" xmlns="http://www.w3.org/2000/svg">
<path d="M7.97181 38.3613V36.3283H30.2192C30.6292 36.3283 31.0352 36.4092 31.4139 36.5665C31.7925 36.7238 32.1363 36.9543 32.4256 37.2448C32.715 37.5354 32.9441 37.8801 33.0998 38.2594C33.2555 38.6387 33.3348 39.045 33.3331 39.455V41.8483H32.4195C32.0783 41.8483 31.751 41.9839 31.5097 42.2252C31.2684 42.4665 31.1328 42.7938 31.1328 43.135V48.2819C31.1328 48.6232 31.2684 48.9505 31.5097 49.1918C31.751 49.4331 32.0783 49.5686 32.4195 49.5686H51.18C51.5212 49.5686 51.8485 49.4331 52.0898 49.1918C52.3311 48.9505 52.4667 48.6232 52.4667 48.2819V43.135C52.4667 42.7938 52.3311 42.4665 52.0898 42.2252C51.8485 41.9839 51.5212 41.8483 51.18 41.8483H50.2535V35.0415C50.2467 30.8985 48.597 26.9273 45.6662 23.9989C42.7354 21.0706 38.7629 19.4241 34.6198 19.4207H28.0318C27.7847 18.3032 27.2009 17.2882 26.3591 16.5127C26.3653 16.44 26.3653 16.3668 26.3591 16.294V7.66008H29.1127C29.5893 7.68902 30.0667 7.62013 30.5157 7.45766C30.9647 7.29518 31.3757 7.04255 31.7234 6.71532C32.0711 6.38808 32.3482 5.99316 32.5376 5.55485C32.727 5.11654 32.8247 4.64411 32.8247 4.16663C32.8247 3.68916 32.727 3.21673 32.5376 2.77842C32.3482 2.34011 32.0711 1.94519 31.7234 1.61795C31.3757 1.29071 30.9647 1.03809 30.5157 0.875609C30.0667 0.713133 29.5893 0.644244 29.1127 0.673182H15.8852C15.4086 0.644244 14.9311 0.713133 14.4821 0.875609C14.0331 1.03809 13.6221 1.29071 13.2744 1.61795C12.9267 1.94519 12.6496 2.34011 12.4602 2.77842C12.2709 3.21673 12.1732 3.68916 12.1732 4.16663C12.1732 4.64411 12.2709 5.11654 12.4602 5.55485C12.6496 5.99316 12.9267 6.38808 13.2744 6.71532C13.6221 7.04255 14.0331 7.29518 14.4821 7.45766C14.9311 7.62013 15.4086 7.68902 15.8852 7.66008H18.6387V16.294C18.6325 16.3668 18.6325 16.44 18.6387 16.5127C17.7828 17.283 17.1851 18.2984 16.9274 19.4207H7.92035V17.4006C7.92035 17.0593 7.78478 16.732 7.54348 16.4907C7.30217 16.2494 6.97488 16.1139 6.63362 16.1139H1.48673C1.14547 16.1139 0.818192 16.2494 0.576885 16.4907C0.335577 16.732 0.200012 17.0593 0.200012 17.4006V38.3613C0.200012 38.7025 0.335577 39.0298 0.576885 39.2711C0.818192 39.5124 1.14547 39.648 1.48673 39.648H6.63362C6.80688 39.6549 6.97975 39.6268 7.14185 39.5652C7.30396 39.5037 7.45194 39.41 7.57693 39.2898C7.70192 39.1696 7.80133 39.0254 7.86919 38.8659C7.93705 38.7063 7.97195 38.5347 7.97181 38.3613ZM49.8932 46.9952H33.7063V44.4217H49.8932V46.9952ZM14.9587 4.1602C14.9587 4.03914 14.9828 3.91928 15.0295 3.80759C15.0762 3.69591 15.1446 3.59462 15.2308 3.50961C15.317 3.42461 15.4193 3.35759 15.5316 3.31244C15.6439 3.26729 15.7641 3.24492 15.8852 3.24663H29.1127C29.2426 3.23123 29.3744 3.24354 29.4992 3.28275C29.6241 3.32195 29.7392 3.38716 29.837 3.47408C29.9348 3.561 30.0131 3.66765 30.0668 3.78702C30.1204 3.9064 30.1481 4.03577 30.1481 4.16663C30.1481 4.29749 30.1204 4.42687 30.0668 4.54624C30.0131 4.66561 29.9348 4.77227 29.837 4.85919C29.7392 4.94611 29.6241 5.01132 29.4992 5.05052C29.3744 5.08973 29.2426 5.10203 29.1127 5.08664H15.8852C15.6395 5.08664 15.4038 4.98903 15.2301 4.81529C15.0563 4.64155 14.9587 4.40591 14.9587 4.1602ZM21.2122 15.0073V7.66008H23.7856V15.0073H21.2122ZM22.4989 17.5807C23.0992 17.5835 23.6861 17.7582 24.1901 18.0844C24.6941 18.4105 25.0941 18.8743 25.3426 19.4207H19.6553C19.9037 18.8743 20.3037 18.4105 20.8077 18.0844C21.3117 17.7582 21.8986 17.5835 22.4989 17.5807ZM18.0726 21.9942H34.6198C38.0804 21.9976 41.3984 23.3729 43.8465 25.8186C46.2947 28.2644 47.6733 31.581 47.6801 35.0415V41.8483H35.9066V39.455C35.9066 37.9454 35.3078 36.4975 34.2416 35.4289C33.1754 34.3603 31.7288 33.7582 30.2192 33.7548H7.97181V21.9942H18.0726ZM5.39837 37.0746H2.82493V18.6873H5.39837V37.0746Z" fill="#037EC4"/>
<path d="M50.2921 66.8107C50.2921 62.5131 43.5883 53.6476 42.8163 52.6568C42.6977 52.4987 42.5444 52.37 42.3681 52.2808C42.1918 52.1915 41.9973 52.1441 41.7997 52.1421C41.6032 52.1426 41.4094 52.188 41.2332 52.275C41.057 52.362 40.9031 52.4882 40.7832 52.6439C40.0112 53.6476 33.3074 62.5131 33.3074 66.7979C33.3074 67.9131 33.527 69.0174 33.9538 70.0477C34.3806 71.0781 35.0061 72.0143 35.7947 72.8029C36.5833 73.5915 37.5195 74.217 38.5498 74.6438C39.5802 75.0706 40.6845 75.2902 41.7997 75.2902C42.915 75.2902 44.0193 75.0706 45.0496 74.6438C46.08 74.217 47.0162 73.5915 47.8047 72.8029C48.5933 72.0143 49.2189 71.0781 49.6457 70.0477C50.0724 69.0174 50.2921 67.9131 50.2921 66.7979V66.8107ZM41.7997 72.7296C41.0225 72.7296 40.2528 72.5765 39.5347 72.2791C38.8165 71.9816 38.1641 71.5457 37.6144 70.996C37.0648 70.4464 36.6288 69.7939 36.3314 69.0758C36.0339 68.3577 35.8808 67.588 35.8808 66.8107C35.8808 64.5461 39.1748 59.2191 41.7997 55.5905C44.3732 59.2191 47.7187 64.5976 47.7187 66.8107C47.7187 68.3805 47.0951 69.886 45.985 70.996C44.875 72.106 43.3695 72.7296 41.7997 72.7296Z" fill="#037EC4"/>
</svg>
