<svg width="68" height="76" viewBox="0 0 68 76" fill="none" xmlns="http://www.w3.org/2000/svg">
<path d="M60.0666 56.2105L59.8799 55.8167C59.0897 54.3525 58.6759 52.7148 58.6759 51.051C58.6759 49.3873 59.0897 47.7496 59.8799 46.2854L60.0666 45.8916V41.7177H9.66658C8.46062 41.7114 7.26614 41.9522 6.15676 42.4251C5.04738 42.898 4.04659 43.5931 3.21606 44.4676C2.38553 45.342 1.74286 46.3772 1.32764 47.5095C0.91243 48.6417 0.733467 49.847 0.801785 51.051C0.733742 52.255 0.912895 53.4602 1.32821 54.5923C1.74353 55.7244 2.38621 56.7596 3.21668 57.6339C4.04715 58.5083 5.04783 59.2034 6.15709 59.6764C7.26635 60.1494 8.4607 60.3904 9.66658 60.3844H9.91672C8.82967 62.049 8.25585 63.9963 8.26658 65.9844C8.19826 67.1886 8.37727 68.394 8.7926 69.5264C9.20793 70.6588 9.85077 71.6941 10.6815 72.5686C11.5122 73.443 12.5132 74.138 13.6228 74.6109C14.7324 75.0837 15.9271 75.3242 17.1333 75.3177H67.5332V71.1532L67.3466 70.7668C66.574 69.291 66.1705 67.6501 66.1705 65.9844C66.1705 64.3187 66.574 62.6777 67.3466 61.202L67.5332 60.8156V56.651H60.0666V56.2105ZM4.53512 51.051C4.47416 50.3397 4.56148 49.6235 4.79156 48.9477C5.02165 48.2719 5.38948 47.6512 5.87179 47.1248C6.3541 46.5985 6.9404 46.1779 7.5936 45.8898C8.24679 45.6017 8.95267 45.4523 9.66658 45.451H56.1466C55.6282 46.6426 55.2716 47.8982 55.0863 49.1844H9.66658V52.9177H55.0788C55.2641 54.2039 55.6207 55.4595 56.1391 56.651H9.66658C8.95276 56.6495 8.24701 56.4999 7.59395 56.2117C6.94088 55.9235 6.3547 55.503 5.87245 54.9767C5.39019 54.4504 5.02234 53.8298 4.79216 53.1541C4.56197 52.4784 4.47445 51.7623 4.53512 51.051ZM63.6133 60.3844C63.1051 61.5779 62.7562 62.8332 62.5754 64.1177H17.1333V67.851H62.5773C62.7581 69.1356 63.107 70.3908 63.6151 71.5844H17.1333C16.4193 71.5831 15.7133 71.4337 15.06 71.1456C14.4067 70.8575 13.8203 70.437 13.3379 69.9107C12.8554 69.3844 12.4874 68.7637 12.2571 68.0879C12.0268 67.412 11.9392 66.6958 11.9999 65.9844C11.9392 65.273 12.0268 64.5567 12.2571 63.8809C12.4874 63.2051 12.8554 62.5844 13.3379 62.0581C13.8203 61.5317 14.4067 61.1113 15.06 60.8232C15.7133 60.5351 16.4193 60.3857 17.1333 60.3844H63.6133ZM67.5332 16.906V12.971L33.9482 0.533447L0.333252 12.3961V16.906L13.3999 21.5166V31.41L14.0999 31.97C19.1063 35.9796 26.5189 37.9844 33.9333 37.9844C41.3476 37.9844 48.7602 35.9833 53.7666 31.9793L54.4666 31.4193V21.526L60.0666 19.5492V24.5686L56.3332 33.902V37.9844H67.5332V33.8926L63.7999 24.5593V18.222L67.5332 16.906ZM60.2103 34.251L61.9332 29.9428L63.6562 34.251H60.2103ZM33.9183 4.50198L61.9986 14.8993L33.9333 24.8038L5.16419 14.651L33.9183 4.50198ZM50.7332 29.5844C42.085 35.8097 25.7815 35.8097 17.1333 29.5844V22.827L33.9333 28.7574L50.7332 22.827V29.5844Z" fill="#037EC4"/>
</svg>
