<svg width="68" height="75" viewBox="0 0 68 75" fill="none" xmlns="http://www.w3.org/2000/svg">
<path d="M11.8276 60.7343C8.30663 60.6592 4.79897 61.1904 1.45806 62.3045C1.20113 62.3901 0.963879 62.5262 0.760208 62.7046C0.556537 62.8831 0.390551 63.1004 0.271985 63.3439C0.153418 63.5874 0.084659 63.8519 0.0697398 64.1223C0.0548207 64.3926 0.0940417 64.6634 0.185103 64.9184C0.924012 66.9797 2.12842 68.8427 3.70468 70.3627C5.28093 71.8827 7.18655 73.0188 9.27334 73.6823C10.5036 74.0736 11.8251 74.0736 13.0554 73.6823C15.1418 73.0185 17.0471 71.8825 18.6231 70.3625C20.199 68.8425 21.4032 66.9795 22.1419 64.9184C22.2331 64.6637 22.2725 64.3934 22.2579 64.1232C22.2434 63.8531 22.175 63.5887 22.057 63.3452C21.9389 63.1018 21.7734 62.8843 21.5703 62.7056C21.3672 62.5269 21.1305 62.3906 20.874 62.3045C17.9543 61.3307 14.9047 60.8014 11.8276 60.7343ZM11.8108 62.1573C14.7439 62.222 17.6505 62.7272 20.4334 63.6557C20.5539 63.6969 20.6584 63.7745 20.7325 63.8781C20.8065 63.9816 20.8463 64.1057 20.8463 64.233C20.8463 64.3602 20.8065 64.4843 20.7325 64.5879C20.6584 64.6914 20.5539 64.7692 20.4334 64.8104C14.4227 66.8138 7.92435 66.8138 1.91362 64.8104C1.79318 64.7692 1.68862 64.6914 1.61459 64.5879C1.54056 64.4843 1.50076 64.3602 1.50076 64.233C1.50076 64.1057 1.54056 63.9816 1.61459 63.8781C1.68862 63.7745 1.79318 63.6969 1.91362 63.6557C5.10225 62.592 8.45023 62.085 11.8108 62.1573Z" fill="#037EC4"/>
<path d="M57.352 14.7525C57.3628 12.8979 57.0068 11.0595 56.3046 9.34297C55.6023 7.6264 54.5677 6.06549 53.26 4.75023C51.9524 3.43497 50.3977 2.39131 48.6853 1.67907C46.9728 0.966828 45.1365 0.600098 43.2818 0.600098C41.4272 0.600098 39.5908 0.966828 37.8784 1.67907C36.1659 2.39131 34.6112 3.43497 33.3036 4.75023C31.996 6.06549 30.9613 7.6264 30.259 9.34297C29.5568 11.0595 29.2008 12.8979 29.2117 14.7525C29.2008 16.6071 29.5568 18.4457 30.259 20.1623C30.9613 21.8788 31.996 23.4395 33.3036 24.7548C34.6112 26.0701 36.1659 27.1139 37.8784 27.8261C39.5908 28.5384 41.4272 28.9049 43.2818 28.9049C45.1365 28.9049 46.9728 28.5384 48.6853 27.8261C50.3977 27.1139 51.9524 26.0701 53.26 24.7548C54.5677 23.4395 55.6023 21.8788 56.3046 20.1623C57.0068 18.4457 57.3628 16.6071 57.352 14.7525Z" fill="#037EC4"/>
<path d="M41.5891 48.8692C41.5891 46.9974 40.8455 45.2022 39.522 43.8787C38.1984 42.5551 36.4033 41.8115 34.5315 41.8115C32.6598 41.8115 30.8647 42.5551 29.5411 43.8787C28.2176 45.2022 27.474 46.9974 27.474 48.8692V67.3242C27.474 69.1959 28.2176 70.9911 29.5411 72.3147C30.8647 73.6382 32.6598 74.3818 34.5315 74.3818C36.4033 74.3818 38.1984 73.6382 39.522 72.3147C40.8455 70.9911 41.5891 69.1959 41.5891 67.3242V48.8692Z" fill="#037EC4"/>
<path d="M44.9746 67.3236C45.0109 69.1708 45.7701 70.9301 47.0892 72.2236C48.4083 73.517 50.1821 74.2416 52.0296 74.2416C53.8771 74.2416 55.6509 73.517 56.97 72.2236C58.2892 70.9301 59.0484 69.1708 59.0846 67.3236V48.8687C59.0484 47.0215 58.2892 45.2622 56.97 43.9688C55.6509 42.6753 53.8771 41.9507 52.0296 41.9507C50.1821 41.9507 48.4083 42.6753 47.0892 43.9688C45.7701 45.2622 45.0109 47.0215 44.9746 48.8687V67.3236Z" fill="#037EC4"/>
<path d="M20.827 25.8793C19.7823 30.5948 19.2692 35.4127 19.2976 40.2425C19.4856 41.8473 20.3008 43.3124 21.5654 44.3182C22.83 45.324 24.4412 45.7887 26.0471 45.6107C26.5444 44.3158 27.3314 43.152 28.3478 42.2082C29.3642 41.2644 30.5831 40.5656 31.9112 40.1656C33.2392 39.7655 34.6412 39.6746 36.0098 39.8999C37.3785 40.1252 38.6773 40.6609 39.8071 41.4656C40.4244 40.4032 41.0916 39.3705 41.8062 38.371C37.1829 36.8751 32.2584 36.5621 27.4829 37.4607C27.6268 34.0933 28.0717 30.7456 28.8123 27.4575L30.8425 27.7007C30.2852 30.1339 29.8958 32.6025 29.677 35.0891C34.2772 34.616 38.9249 35.1745 43.2819 36.7243C47.6389 35.1745 52.2866 34.616 56.8867 35.0891C56.668 32.6025 56.2786 30.1339 55.7213 27.7007L57.7508 27.4575C58.4899 30.7457 58.9333 34.0934 59.0758 37.4607C55.2286 36.7371 51.2749 36.7981 47.4518 37.64C46.4059 37.8704 45.4157 38.305 44.5382 38.9189C43.6606 39.5329 42.913 40.3141 42.338 41.2177C41.996 41.7563 41.668 42.3035 41.3542 42.859C42.2539 43.8805 42.9126 45.0909 43.2819 46.401C43.8006 44.5637 44.8845 42.9364 46.3801 41.7497C47.8756 40.5631 49.7068 39.8775 51.6139 39.79C53.521 39.7026 55.4073 40.2177 57.0051 41.2625C58.603 42.3073 59.8314 43.8285 60.516 45.6107C62.122 45.7887 63.7331 45.3242 64.9977 44.3184C66.2623 43.3126 67.0776 41.8473 67.2656 40.2425C67.3035 33.6577 66.3352 27.1059 64.3941 20.8136C63.9858 19.581 63.3302 18.4445 62.4676 17.4739C61.605 16.5033 60.5534 15.7191 59.3771 15.1689C59.2641 19.3632 57.5184 23.3477 54.5118 26.2743C51.5052 29.201 47.4751 30.8385 43.2794 30.8385C39.0836 30.8385 35.0535 29.201 32.0469 26.2743C29.0403 23.3477 27.2946 19.3632 27.1816 15.1689C26.0055 15.7192 24.954 16.5035 24.0915 17.4741C23.2289 18.4447 22.5735 19.581 22.1653 20.8136C21.6426 22.5128 21.1902 24.2328 20.8093 25.9693" fill="#037EC4"/>
</svg>
