<svg width="54" height="75" viewBox="0 0 54 75" fill="none" xmlns="http://www.w3.org/2000/svg">
<path d="M47.0793 47.3672L35.7914 45.1092V43.0594C38.1663 41.0952 39.8354 38.3157 40.3942 35.1568C43.2424 34.6823 45.4258 32.2171 45.4258 29.2365V14.933C45.4258 11.5935 43.2508 8.67665 40.0896 7.70478L38.9804 6.37403C35.7818 2.53471 31.0814 0.333252 26.0835 0.333252C16.8273 0.333252 9.29678 7.86375 9.29678 17.12V29.2365C9.29678 32.2171 11.4802 34.6823 14.3283 35.158C14.8871 38.3157 16.5551 41.0952 18.9312 43.0606V45.1104L7.64327 47.3684C3.71604 48.1524 0.866669 51.6292 0.866669 55.6335V74.9999H53.8559V55.6335C53.8559 51.6292 51.0065 48.1524 47.0793 47.3672ZM40.6086 32.6278V25.8464C42.0068 26.3449 43.0172 27.6697 43.0172 29.2377C43.0172 30.8057 42.0068 32.1292 40.6086 32.6278ZM26.0835 2.74185C30.3648 2.74185 34.3896 4.62779 37.1294 7.91553L38.7299 9.83639L39.1117 9.93153C41.4119 10.5072 43.0172 12.5629 43.0172 14.933V24.4506C42.2657 23.8809 41.3854 23.4835 40.4183 23.3185C39.9498 21.8662 38.601 20.8064 36.9957 20.8064H33.1757C31.3006 20.8064 29.5375 20.0766 28.2127 18.7506L27.3613 17.898L26.5098 18.7506C25.1839 20.0766 23.422 20.8064 21.5469 20.8064H17.7269C16.1215 20.8064 14.7727 21.8662 14.3043 23.3173C13.3372 23.4835 12.4581 23.8809 11.7054 24.4494V17.12C11.7054 9.19209 18.1556 2.74185 26.0835 2.74185ZM11.7054 29.2365C11.7054 27.6685 12.7158 26.3437 14.114 25.8452V32.6266C12.7158 32.1292 11.7054 30.8045 11.7054 29.2365ZM16.5226 32.8494V24.4193C16.5226 23.7557 17.0621 23.215 17.7269 23.215H21.5469C23.6822 23.215 25.709 22.5105 27.3613 21.2098C29.0136 22.5105 31.0404 23.215 33.1757 23.215H36.9957C37.6605 23.215 38.2 23.7557 38.2 24.4193V32.8494C38.2 38.8251 33.3382 43.6881 27.3613 43.6881C21.3843 43.6881 16.5226 38.8251 16.5226 32.8494ZM27.3613 46.0967C29.5302 46.0967 31.5739 45.562 33.3828 44.6347V45.692C32.7734 46.4327 30.7671 48.5053 27.3613 48.5053C23.9483 48.5053 21.9528 46.4411 21.3398 45.692V44.6347C23.1486 45.562 25.1923 46.0967 27.3613 46.0967ZM12.9097 67.7741H41.8129V72.5913H12.9097V67.7741ZM51.4473 72.5913H44.2215V55.7311H41.8129V60.5483H36.9957V62.9569H41.8129V65.3655H12.9097V62.9569H34.5871V60.5483H12.9097V55.7311H10.5011V72.5913H3.27527V55.6335C3.27527 52.7733 5.31054 50.2889 8.11656 49.7289L19.6538 47.4214C20.6798 48.5932 23.2342 50.9139 27.3613 50.9139C31.4884 50.9139 34.0428 48.5932 35.07 47.4214L46.6072 49.7289C49.412 50.2889 51.4473 52.7733 51.4473 55.6335V72.5913Z" fill="#037EC4"/>
<path d="M24.9527 38.8709C24.9527 37.5426 26.0329 36.4623 27.3613 36.4623C28.6896 36.4623 29.7699 37.5426 29.7699 38.8709H32.1785C32.1785 36.2142 30.018 34.0537 27.3613 34.0537C24.7046 34.0537 22.5441 36.2142 22.5441 38.8709H24.9527Z" fill="#037EC4"/>
<path d="M20.1355 32.8496H22.5441V28.0324H23.7484V25.6238H18.9312V28.0324H20.1355V32.8496Z" fill="#037EC4"/>
<path d="M32.1785 32.8496H34.5871V28.0324H35.7914V25.6238H30.9742V28.0324H32.1785V32.8496Z" fill="#037EC4"/>
</svg>
